<svg viewBox="0 0 250 200" xmlns="http://www.w3.org/2000/svg" stroke-linecap="round" stroke-linejoin="round">
    
    <!-- Gradients for a more professional look -->
    <defs>
        <!-- Lip Gradient -->
        <linearGradient id="lipGradient" x1="0%" y1="0%" x2="100%" y2="100%">
            <stop offset="0%" style="stop-color:#FF4F6D; stop-opacity:1" />
            <stop offset="100%" style="stop-color:#D22E50; stop-opacity:1" />
        </linearGradient>
        
        <!-- Syringe Body Gradient -->
        <linearGradient id="syringeGradient" x1="0%" y1="0%" x2="100%" y2="100%">
            <stop offset="0%" style="stop-color:#D3DCE3; stop-opacity:1" />
            <stop offset="100%" style="stop-color:#A9BBCB; stop-opacity:1" />
        </linearGradient>
        
        <!-- Needle Gradient -->
        <linearGradient id="needleGradient" x1="0%" y1="0%" x2="100%" y2="100%">
            <stop offset="0%" style="stop-color:#B0B0B0; stop-opacity:1" />
            <stop offset="100%" style="stop-color:#808080; stop-opacity:1" />
        </linearGradient>
    </defs>

    <!-- Upper Lip -->
    <path d="M50 100 Q 125 45, 200 100" fill="url(#lipGradient)" stroke="#B82040" stroke-width="2"/>

    <!-- Lower Lip -->
    <path d="M200 100 Q 125 155, 50 100" fill="url(#lipGradient)" stroke="#B82040" stroke-width="2"/>

    <!-- Lip Separation -->
    <path d="M50 100 Q 125 115, 200 100" fill="none" stroke="#9C1C37" stroke-width="2"/>

    <!-- Lip Highlight for a glossy effect -->
    <path d="M65 95 Q 125 60, 185 95" fill="none" stroke="white" stroke-opacity="0.3" stroke-width="3"/>

    <!-- Syringe Group (Angled for realism) -->
    <g transform="rotate(-25 190 80)">
        <!-- Syringe Barrel -->
        <rect x="160" y="20" width="15" height="70" fill="url(#syringeGradient)" stroke="black" rx="5"/>
        
        <!-- Syringe Plunger -->
        <rect x="158" y="5" width="19" height="15" fill="gray" stroke="black" rx="3"/>
        
        <!-- Measurement Lines -->
        <line x1="165" y1="30" x2="175" y2="30" stroke="black" stroke-width="1"/>
        <line x1="165" y1="40" x2="175" y2="40" stroke="black" stroke-width="1"/>
        <line x1="165" y1="50" x2="175" y2="50" stroke="black" stroke-width="1"/>
        <line x1="165" y1="60" x2="175" y2="60" stroke="black" stroke-width="1"/>
        <line x1="165" y1="70" x2="175" y2="70" stroke="black" stroke-width="1"/>
        
        <!-- Syringe Needle -->
        <line x1="167.5" y1="90" x2="167.5" y2="110" stroke="url(#needleGradient)" stroke-width="2"/>
        
        <!-- Injection Point -->
        <circle cx="167.5" cy="110" r="3" fill="black"/>
    </g>

</svg>
